<svg xmlns="http://www.w3.org/2000/svg" xmlns:xlink="http://www.w3.org/1999/xlink" width="200" zoomAndPan="magnify" viewBox="0 0 150 30.000001" height="40" preserveAspectRatio="xMidYMid meet" version="1.0"><defs><g/><clipPath id="0acc14e307"><path d="M 69.492188 0 L 79.648438 0 L 79.648438 12.339844 L 69.492188 12.339844 Z M 69.492188 0 " clip-rule="nonzero"/></clipPath><clipPath id="0f35319b82"><path d="M 73 0 L 75 0 L 75 12.339844 L 73 12.339844 Z M 73 0 " clip-rule="nonzero"/></clipPath><clipPath id="f19ddbf455"><path d="M 74 0 L 76 0 L 76 12.339844 L 74 12.339844 Z M 74 0 " clip-rule="nonzero"/></clipPath><clipPath id="5f9659ee85"><path d="M 77 0 L 79 0 L 79 12.339844 L 77 12.339844 Z M 77 0 " clip-rule="nonzero"/></clipPath><clipPath id="c041336896"><path d="M 76 0 L 78 0 L 78 12.339844 L 76 12.339844 Z M 76 0 " clip-rule="nonzero"/></clipPath><clipPath id="c68e9423f6"><path d="M 70 0 L 72 0 L 72 12.339844 L 70 12.339844 Z M 70 0 " clip-rule="nonzero"/></clipPath><clipPath id="2f98301416"><path d="M 71 0 L 73 0 L 73 12.339844 L 71 12.339844 Z M 71 0 " clip-rule="nonzero"/></clipPath><clipPath id="5a69619147"><path d="M 69.492188 0 L 71 0 L 71 12.339844 L 69.492188 12.339844 Z M 69.492188 0 " clip-rule="nonzero"/></clipPath><clipPath id="eea0a7dcc4"><path d="M 70 2 L 71 2 L 71 12.339844 L 70 12.339844 Z M 70 2 " clip-rule="nonzero"/></clipPath><clipPath id="1815a2f829"><path d="M 78 0 L 79.648438 0 L 79.648438 12.339844 L 78 12.339844 Z M 78 0 " clip-rule="nonzero"/></clipPath></defs><g fill="#d9d9d9" fill-opacity="1"><g transform="translate(28.225213, 21.420259)"><g><path d="M 3.1875 0 L 5.316406 0 L 7.472656 -6.144531 L 9.632812 0 L 11.746094 0 L 14.8125 -9.496094 L 12.535156 -9.496094 L 11.625 -6.605469 L 10.609375 -3.445312 L 9.507812 -6.605469 L 8.492188 -9.496094 L 6.445312 -9.496094 L 5.425781 -6.605469 L 4.339844 -3.484375 L 3.335938 -6.605469 L 2.429688 -9.496094 L 0.136719 -9.496094 Z M 3.1875 0 "/></g></g></g><g fill="#d9d9d9" fill-opacity="1"><g transform="translate(42.765108, 21.420259)"><g><path d="M 5.644531 0.191406 C 8.613281 0.191406 10.714844 -1.84375 10.714844 -4.746094 C 10.714844 -7.652344 8.613281 -9.6875 5.644531 -9.6875 C 2.671875 -9.6875 0.582031 -7.652344 0.582031 -4.746094 C 0.582031 -1.84375 2.671875 0.191406 5.644531 0.191406 Z M 2.78125 -4.746094 C 2.78125 -6.457031 3.960938 -7.636719 5.644531 -7.636719 C 7.339844 -7.636719 8.503906 -6.457031 8.503906 -4.746094 C 8.503906 -3.039062 7.339844 -1.859375 5.644531 -1.859375 C 3.960938 -1.859375 2.78125 -3.039062 2.78125 -4.746094 Z M 2.78125 -4.746094 "/></g></g></g><g fill="#d9d9d9" fill-opacity="1"><g transform="translate(53.656424, 21.420259)"><g><path d="M 5.644531 0.191406 C 8.613281 0.191406 10.714844 -1.84375 10.714844 -4.746094 C 10.714844 -7.652344 8.613281 -9.6875 5.644531 -9.6875 C 2.671875 -9.6875 0.582031 -7.652344 0.582031 -4.746094 C 0.582031 -1.84375 2.671875 0.191406 5.644531 0.191406 Z M 2.78125 -4.746094 C 2.78125 -6.457031 3.960938 -7.636719 5.644531 -7.636719 C 7.339844 -7.636719 8.503906 -6.457031 8.503906 -4.746094 C 8.503906 -3.039062 7.339844 -1.859375 5.644531 -1.859375 C 3.960938 -1.859375 2.78125 -3.039062 2.78125 -4.746094 Z M 2.78125 -4.746094 "/></g></g></g><g fill="#d9d9d9" fill-opacity="1"><g transform="translate(64.547741, 21.420259)"><g><path d="M 1.140625 0 L 4.898438 0 C 7.894531 0 9.902344 -1.914062 9.902344 -4.746094 C 9.902344 -7.570312 7.894531 -9.496094 4.898438 -9.496094 L 1.140625 -9.496094 Z M 3.296875 -1.980469 L 3.296875 -7.515625 L 4.828125 -7.515625 C 6.539062 -7.515625 7.691406 -6.417969 7.691406 -4.746094 C 7.691406 -3.078125 6.539062 -1.980469 4.855469 -1.980469 Z M 3.296875 -1.980469 "/></g></g></g><g fill="#d9d9d9" fill-opacity="1"><g transform="translate(74.611682, 21.420259)"><g/></g></g><g fill="#d9d9d9" fill-opacity="1"><g transform="translate(77.392021, 21.420259)"><g><path d="M 3.1875 0 L 5.316406 0 L 7.472656 -6.144531 L 9.632812 0 L 11.746094 0 L 14.8125 -9.496094 L 12.535156 -9.496094 L 11.625 -6.605469 L 10.609375 -3.445312 L 9.507812 -6.605469 L 8.492188 -9.496094 L 6.445312 -9.496094 L 5.425781 -6.605469 L 4.339844 -3.484375 L 3.335938 -6.605469 L 2.429688 -9.496094 L 0.136719 -9.496094 Z M 3.1875 0 "/></g></g></g><g fill="#d9d9d9" fill-opacity="1"><g transform="translate(91.931916, 21.420259)"><g><path d="M 5.644531 0.191406 C 8.613281 0.191406 10.714844 -1.84375 10.714844 -4.746094 C 10.714844 -7.652344 8.613281 -9.6875 5.644531 -9.6875 C 2.671875 -9.6875 0.582031 -7.652344 0.582031 -4.746094 C 0.582031 -1.84375 2.671875 0.191406 5.644531 0.191406 Z M 2.78125 -4.746094 C 2.78125 -6.457031 3.960938 -7.636719 5.644531 -7.636719 C 7.339844 -7.636719 8.503906 -6.457031 8.503906 -4.746094 C 8.503906 -3.039062 7.339844 -1.859375 5.644531 -1.859375 C 3.960938 -1.859375 2.78125 -3.039062 2.78125 -4.746094 Z M 2.78125 -4.746094 "/></g></g></g><g fill="#d9d9d9" fill-opacity="1"><g transform="translate(102.823232, 21.420259)"><g><path d="M 1.140625 0 L 3.296875 0 L 3.296875 -2.957031 L 4.722656 -2.957031 L 6.417969 0 L 8.914062 0 L 6.945312 -3.296875 C 8.085938 -3.796875 8.75 -4.828125 8.75 -6.226562 C 8.75 -8.246094 7.367188 -9.496094 5.195312 -9.496094 L 1.140625 -9.496094 Z M 3.269531 -4.773438 L 3.269531 -7.652344 L 4.910156 -7.652344 C 5.96875 -7.652344 6.566406 -7.136719 6.566406 -6.214844 C 6.566406 -5.289062 5.96875 -4.773438 4.910156 -4.773438 Z M 3.269531 -4.773438 "/></g></g></g><g fill="#d9d9d9" fill-opacity="1"><g transform="translate(111.964854, 21.420259)"><g><path d="M 3.417969 0 L 5.574219 0 L 5.574219 -7.472656 L 8.585938 -7.472656 L 8.585938 -9.496094 L 0.40625 -9.496094 L 0.40625 -7.472656 L 3.417969 -7.472656 Z M 3.417969 0 "/></g></g></g><g fill="#d9d9d9" fill-opacity="1"><g transform="translate(120.55037, 21.420259)"><g><path d="M 7.011719 0 L 9.171875 0 L 9.171875 -9.496094 L 7.011719 -9.496094 L 7.011719 -5.847656 L 3.296875 -5.847656 L 3.296875 -9.496094 L 1.140625 -9.496094 L 1.140625 0 L 3.296875 0 L 3.296875 -3.824219 L 7.011719 -3.824219 Z M 7.011719 0 "/></g></g></g><g fill="#d9d9d9" fill-opacity="1"><g transform="translate(32.907304, 27.117288)"><g><path d="M 1.546875 0.046875 C 1.273438 0.046875 1.015625 0.00390625 0.765625 -0.078125 C 0.523438 -0.160156 0.335938 -0.269531 0.203125 -0.40625 L 0.390625 -0.78125 C 0.523438 -0.664062 0.695312 -0.570312 0.90625 -0.5 C 1.113281 -0.425781 1.328125 -0.390625 1.546875 -0.390625 C 1.828125 -0.390625 2.039062 -0.4375 2.1875 -0.53125 C 2.332031 -0.625 2.40625 -0.753906 2.40625 -0.921875 C 2.40625 -1.035156 2.363281 -1.128906 2.28125 -1.203125 C 2.207031 -1.285156 2.113281 -1.347656 2 -1.390625 C 1.882812 -1.429688 1.722656 -1.472656 1.515625 -1.515625 C 1.242188 -1.578125 1.03125 -1.640625 0.875 -1.703125 C 0.71875 -1.765625 0.582031 -1.863281 0.46875 -2 C 0.351562 -2.132812 0.296875 -2.3125 0.296875 -2.53125 C 0.296875 -2.71875 0.34375 -2.882812 0.4375 -3.03125 C 0.53125 -3.1875 0.675781 -3.304688 0.875 -3.390625 C 1.082031 -3.484375 1.332031 -3.53125 1.625 -3.53125 C 1.832031 -3.53125 2.035156 -3.503906 2.234375 -3.453125 C 2.429688 -3.398438 2.601562 -3.320312 2.75 -3.21875 L 2.578125 -2.828125 C 2.429688 -2.910156 2.273438 -2.976562 2.109375 -3.03125 C 1.941406 -3.082031 1.78125 -3.109375 1.625 -3.109375 C 1.34375 -3.109375 1.128906 -3.054688 0.984375 -2.953125 C 0.847656 -2.847656 0.78125 -2.710938 0.78125 -2.546875 C 0.78125 -2.429688 0.816406 -2.332031 0.890625 -2.25 C 0.972656 -2.175781 1.070312 -2.117188 1.1875 -2.078125 C 1.3125 -2.046875 1.472656 -2.003906 1.671875 -1.953125 C 1.929688 -1.890625 2.140625 -1.828125 2.296875 -1.765625 C 2.460938 -1.703125 2.601562 -1.601562 2.71875 -1.46875 C 2.832031 -1.34375 2.890625 -1.171875 2.890625 -0.953125 C 2.890625 -0.765625 2.835938 -0.59375 2.734375 -0.4375 C 2.640625 -0.289062 2.488281 -0.171875 2.28125 -0.078125 C 2.082031 0.00390625 1.835938 0.046875 1.546875 0.046875 Z M 1.546875 0.046875 "/></g></g></g><g fill="#d9d9d9" fill-opacity="1"><g transform="translate(39.0002, 27.117288)"><g><path d="M 0.515625 -3.484375 L 1.015625 -3.484375 L 1.015625 0 L 0.515625 0 Z M 0.515625 -3.484375 "/></g></g></g><g fill="#d9d9d9" fill-opacity="1"><g transform="translate(43.541174, 27.117288)"><g><path d="M 3.765625 0 L 3.75 -2.546875 L 2.5 -0.421875 L 2.265625 -0.421875 L 1 -2.53125 L 1 0 L 0.515625 0 L 0.515625 -3.484375 L 0.9375 -3.484375 L 2.390625 -1.03125 L 3.828125 -3.484375 L 4.234375 -3.484375 L 4.234375 0 Z M 3.765625 0 "/></g></g></g><g fill="#d9d9d9" fill-opacity="1"><g transform="translate(51.300763, 27.117288)"><g><path d="M 1.890625 -3.484375 C 2.335938 -3.484375 2.691406 -3.375 2.953125 -3.15625 C 3.210938 -2.945312 3.34375 -2.648438 3.34375 -2.265625 C 3.34375 -1.890625 3.210938 -1.59375 2.953125 -1.375 C 2.691406 -1.164062 2.335938 -1.0625 1.890625 -1.0625 L 1.015625 -1.0625 L 1.015625 0 L 0.515625 0 L 0.515625 -3.484375 Z M 1.875 -1.484375 C 2.1875 -1.484375 2.425781 -1.550781 2.59375 -1.6875 C 2.757812 -1.820312 2.84375 -2.015625 2.84375 -2.265625 C 2.84375 -2.523438 2.757812 -2.722656 2.59375 -2.859375 C 2.425781 -2.992188 2.1875 -3.0625 1.875 -3.0625 L 1.015625 -3.0625 L 1.015625 -1.484375 Z M 1.875 -1.484375 "/></g></g></g><g fill="#d9d9d9" fill-opacity="1"><g transform="translate(57.897658, 27.117288)"><g><path d="M 0.515625 -3.484375 L 1.015625 -3.484375 L 1.015625 -0.4375 L 2.90625 -0.4375 L 2.90625 0 L 0.515625 0 Z M 0.515625 -3.484375 "/></g></g></g><g fill="#d9d9d9" fill-opacity="1"><g transform="translate(63.855821, 27.117288)"><g><path d="M 3.0625 -0.4375 L 3.0625 0 L 0.515625 0 L 0.515625 -3.484375 L 2.984375 -3.484375 L 2.984375 -3.0625 L 1.015625 -3.0625 L 1.015625 -1.984375 L 2.765625 -1.984375 L 2.765625 -1.5625 L 1.015625 -1.5625 L 1.015625 -0.4375 Z M 3.0625 -0.4375 "/></g></g></g><g fill="#d9d9d9" fill-opacity="1"><g transform="translate(70.193227, 27.117288)"><g/></g></g><g fill="#d9d9d9" fill-opacity="1"><g transform="translate(74.529606, 27.117288)"><g><path d="M 3.078125 0.0625 L 2.609375 -0.40625 C 2.296875 -0.101562 1.910156 0.046875 1.453125 0.046875 C 1.210938 0.046875 1 0.0078125 0.8125 -0.0625 C 0.625 -0.144531 0.476562 -0.253906 0.375 -0.390625 C 0.269531 -0.535156 0.21875 -0.695312 0.21875 -0.875 C 0.21875 -1.082031 0.285156 -1.269531 0.421875 -1.4375 C 0.554688 -1.601562 0.773438 -1.769531 1.078125 -1.9375 C 0.921875 -2.09375 0.8125 -2.226562 0.75 -2.34375 C 0.6875 -2.46875 0.65625 -2.597656 0.65625 -2.734375 C 0.65625 -2.972656 0.738281 -3.160156 0.90625 -3.296875 C 1.082031 -3.441406 1.3125 -3.515625 1.59375 -3.515625 C 1.863281 -3.515625 2.078125 -3.445312 2.234375 -3.3125 C 2.390625 -3.1875 2.46875 -3.015625 2.46875 -2.796875 C 2.46875 -2.617188 2.410156 -2.457031 2.296875 -2.3125 C 2.179688 -2.175781 1.988281 -2.03125 1.71875 -1.875 L 2.578125 -1.015625 C 2.679688 -1.210938 2.753906 -1.425781 2.796875 -1.65625 L 3.1875 -1.53125 C 3.125 -1.226562 3.019531 -0.960938 2.875 -0.734375 L 3.34375 -0.265625 Z M 1.59375 -3.171875 C 1.4375 -3.171875 1.3125 -3.128906 1.21875 -3.046875 C 1.132812 -2.972656 1.09375 -2.875 1.09375 -2.75 C 1.09375 -2.65625 1.113281 -2.566406 1.15625 -2.484375 C 1.207031 -2.398438 1.304688 -2.285156 1.453125 -2.140625 C 1.679688 -2.273438 1.835938 -2.390625 1.921875 -2.484375 C 2.015625 -2.578125 2.0625 -2.675781 2.0625 -2.78125 C 2.0625 -2.894531 2.019531 -2.988281 1.9375 -3.0625 C 1.851562 -3.132812 1.738281 -3.171875 1.59375 -3.171875 Z M 1.46875 -0.359375 C 1.820312 -0.359375 2.109375 -0.46875 2.328125 -0.6875 L 1.328125 -1.671875 C 1.097656 -1.535156 0.929688 -1.410156 0.828125 -1.296875 C 0.734375 -1.179688 0.6875 -1.054688 0.6875 -0.921875 C 0.6875 -0.753906 0.757812 -0.617188 0.90625 -0.515625 C 1.050781 -0.410156 1.238281 -0.359375 1.46875 -0.359375 Z M 1.46875 -0.359375 "/></g></g></g><g fill="#d9d9d9" fill-opacity="1"><g transform="translate(80.946855, 27.117288)"><g/></g></g><g fill="#d9d9d9" fill-opacity="1"><g transform="translate(85.283233, 27.117288)"><g><path d="M 3.546875 -3.484375 L 2.03125 0 L 1.53125 0 L 0 -3.484375 L 0.53125 -3.484375 L 1.796875 -0.625 L 3.0625 -3.484375 Z M 3.546875 -3.484375 "/></g></g></g><g fill="#d9d9d9" fill-opacity="1"><g transform="translate(91.830228, 27.117288)"><g><path d="M 0.515625 -3.484375 L 1.015625 -3.484375 L 1.015625 0 L 0.515625 0 Z M 0.515625 -3.484375 "/></g></g></g><g fill="#d9d9d9" fill-opacity="1"><g transform="translate(96.371202, 27.117288)"><g><path d="M 3.53125 -3.484375 L 3.53125 0 L 3.109375 0 L 1.015625 -2.609375 L 1.015625 0 L 0.515625 0 L 0.515625 -3.484375 L 0.9375 -3.484375 L 3.03125 -0.890625 L 3.03125 -3.484375 Z M 3.53125 -3.484375 "/></g></g></g><g fill="#d9d9d9" fill-opacity="1"><g transform="translate(103.417202, 27.117288)"><g><path d="M 1.21875 -3.0625 L 0.015625 -3.0625 L 0.015625 -3.484375 L 2.90625 -3.484375 L 2.90625 -3.0625 L 1.703125 -3.0625 L 1.703125 0 L 1.21875 0 Z M 1.21875 -3.0625 "/></g></g></g><g fill="#d9d9d9" fill-opacity="1"><g transform="translate(109.340432, 27.117288)"><g><path d="M 2.75 -0.875 L 0.890625 -0.875 L 0.515625 0 L 0 0 L 1.578125 -3.484375 L 2.0625 -3.484375 L 3.65625 0 L 3.125 0 Z M 2.578125 -1.265625 L 1.8125 -2.984375 L 1.0625 -1.265625 Z M 2.578125 -1.265625 "/></g></g></g><g fill="#d9d9d9" fill-opacity="1"><g transform="translate(115.987225, 27.117288)"><g><path d="M 2.9375 -1.765625 L 3.421875 -1.765625 L 3.421875 -0.40625 C 3.242188 -0.257812 3.039062 -0.144531 2.8125 -0.0625 C 2.582031 0.0078125 2.34375 0.046875 2.09375 0.046875 C 1.738281 0.046875 1.421875 -0.03125 1.140625 -0.1875 C 0.859375 -0.34375 0.632812 -0.554688 0.46875 -0.828125 C 0.3125 -1.097656 0.234375 -1.40625 0.234375 -1.75 C 0.234375 -2.082031 0.3125 -2.382812 0.46875 -2.65625 C 0.632812 -2.9375 0.859375 -3.148438 1.140625 -3.296875 C 1.429688 -3.453125 1.753906 -3.53125 2.109375 -3.53125 C 2.390625 -3.53125 2.640625 -3.484375 2.859375 -3.390625 C 3.085938 -3.296875 3.285156 -3.160156 3.453125 -2.984375 L 3.140625 -2.6875 C 2.859375 -2.945312 2.519531 -3.078125 2.125 -3.078125 C 1.863281 -3.078125 1.625 -3.019531 1.40625 -2.90625 C 1.195312 -2.789062 1.03125 -2.628906 0.90625 -2.421875 C 0.789062 -2.222656 0.734375 -2 0.734375 -1.75 C 0.734375 -1.488281 0.789062 -1.253906 0.90625 -1.046875 C 1.03125 -0.847656 1.195312 -0.691406 1.40625 -0.578125 C 1.625 -0.460938 1.863281 -0.40625 2.125 -0.40625 C 2.4375 -0.40625 2.707031 -0.476562 2.9375 -0.625 Z M 2.9375 -1.765625 "/></g></g></g><g fill="#d9d9d9" fill-opacity="1"><g transform="translate(122.833625, 27.117288)"><g><path d="M 3.0625 -0.4375 L 3.0625 0 L 0.515625 0 L 0.515625 -3.484375 L 2.984375 -3.484375 L 2.984375 -3.0625 L 1.015625 -3.0625 L 1.015625 -1.984375 L 2.765625 -1.984375 L 2.765625 -1.5625 L 1.015625 -1.5625 L 1.015625 -0.4375 Z M 3.0625 -0.4375 "/></g></g></g><g clip-path="url(#0acc14e307)"><path fill="#ba9b7f" d="M 79.398438 0.257812 L 69.769531 0.257812 L 69.769531 12.082031 L 79.398438 12.082031 Z M 69.640625 0.0078125 L 79.652344 0.0078125 L 79.652344 12.332031 L 69.515625 12.332031 L 69.515625 0.0078125 Z M 69.640625 0.0078125 " fill-opacity="1" fill-rule="nonzero"/></g><g clip-path="url(#0f35319b82)"><path fill="#ba9b7f" d="M 73.960938 0.125 C 73.960938 0.128906 74.097656 2.070312 73.65625 3.097656 C 73.445312 3.585938 73.320312 4.160156 73.28125 4.949219 C 73.242188 5.75 73.292969 6.777344 73.4375 8.160156 C 73.578125 9.480469 73.640625 10.457031 73.671875 11.121094 C 73.871094 10.113281 74.132812 8.539062 74.160156 7.101562 C 74.183594 5.917969 74.144531 5.199219 74.109375 4.59375 C 74.074219 3.992188 74.046875 3.5 74.09375 2.777344 C 74.183594 1.316406 74.457031 0.109375 74.457031 0.105469 L 74.707031 0.160156 C 74.707031 0.164062 74.4375 1.355469 74.347656 2.789062 C 74.300781 3.5 74.328125 3.984375 74.363281 4.578125 C 74.398438 5.1875 74.4375 5.910156 74.414062 7.105469 C 74.367188 9.484375 73.6875 12.226562 73.6875 12.234375 L 73.59375 12.332031 L 73.4375 12.203125 C 73.4375 12.199219 73.480469 10.964844 73.1875 8.1875 C 73.039062 6.789062 72.988281 5.753906 73.027344 4.9375 C 73.070312 4.117188 73.203125 3.515625 73.421875 3.003906 C 73.84375 2.027344 73.707031 0.144531 73.707031 0.140625 Z M 73.960938 0.125 " fill-opacity="1" fill-rule="nonzero"/></g><path fill="#ba9b7f" d="M 77.359375 0.148438 C 77.359375 0.15625 76.957031 2.867188 77.40625 5.097656 C 77.632812 6.230469 77.730469 7.109375 77.757812 7.796875 C 77.785156 8.484375 77.746094 8.976562 77.699219 9.324219 L 77.449219 9.292969 C 77.492188 8.953125 77.53125 8.476562 77.503906 7.804688 C 77.476562 7.132812 77.382812 6.265625 77.15625 5.144531 C 76.699219 2.875 77.109375 0.121094 77.109375 0.113281 Z M 77.359375 0.148438 " fill-opacity="1" fill-rule="nonzero"/><g clip-path="url(#f19ddbf455)"><path fill="#ba9b7f" d="M 75.4375 12.246094 C 75.433594 12.234375 74.179688 8.488281 74.800781 6.226562 C 74.960938 5.644531 75.085938 5.21875 75.183594 4.894531 C 75.441406 4.023438 75.484375 3.890625 75.5 2.894531 C 75.523438 1.515625 75.5 0.136719 75.5 0.132812 L 75.753906 0.128906 C 75.753906 0.132812 75.773438 1.515625 75.753906 2.898438 C 75.734375 3.925781 75.691406 4.066406 75.425781 4.960938 C 75.332031 5.277344 75.210938 5.6875 75.046875 6.289062 C 74.441406 8.484375 75.675781 12.15625 75.679688 12.167969 Z M 75.4375 12.246094 " fill-opacity="1" fill-rule="nonzero"/></g><g clip-path="url(#5f9659ee85)"><path fill="#ba9b7f" d="M 78.546875 12.253906 C 78.542969 12.25 77.464844 9.832031 78.039062 7.453125 C 78.28125 6.457031 78.417969 5.460938 78.480469 4.558594 C 78.5625 3.363281 78.523438 2.328125 78.445312 1.660156 C 78.3125 0.488281 78.222656 0.164062 78.222656 0.164062 L 78.46875 0.101562 C 78.46875 0.101562 78.5625 0.445312 78.699219 1.632812 C 78.777344 2.3125 78.816406 3.363281 78.734375 4.574219 C 78.667969 5.492188 78.53125 6.5 78.289062 7.511719 C 77.730469 9.8125 78.777344 12.148438 78.777344 12.15625 Z M 78.546875 12.253906 " fill-opacity="1" fill-rule="nonzero"/></g><g clip-path="url(#c041336896)"><path fill="#ba9b7f" d="M 76.835938 12.273438 C 76.832031 12.269531 75.972656 11.011719 76.292969 7.894531 C 76.375 7.109375 76.476562 6.402344 76.570312 5.738281 C 76.847656 3.792969 77.074219 2.199219 76.589844 0.160156 L 76.835938 0.105469 C 77.332031 2.1875 77.101562 3.800781 76.820312 5.769531 C 76.726562 6.4375 76.625 7.144531 76.542969 7.917969 C 76.230469 10.949219 77.042969 12.136719 77.046875 12.136719 Z M 76.835938 12.273438 " fill-opacity="1" fill-rule="nonzero"/></g><g clip-path="url(#c68e9423f6)"><path fill="#ba9b7f" d="M 70.625 0.246094 C 70.621094 0.246094 70.171875 0.425781 70.695312 2.644531 C 70.871094 3.402344 71.074219 3.96875 71.253906 4.464844 C 71.621094 5.488281 71.875 6.199219 71.578125 7.621094 C 71.148438 9.6875 70.925781 12.210938 70.921875 12.21875 L 70.671875 12.195312 C 70.671875 12.1875 70.898438 9.648438 71.332031 7.570312 C 71.613281 6.21875 71.367188 5.53125 71.011719 4.546875 C 70.835938 4.046875 70.628906 3.472656 70.445312 2.699219 C 69.878906 0.285156 70.515625 0.0195312 70.515625 0.0195312 Z M 70.625 0.246094 " fill-opacity="1" fill-rule="nonzero"/></g><g clip-path="url(#2f98301416)"><path fill="#ba9b7f" d="M 72.175781 12.25 C 72.171875 12.246094 71.507812 10.550781 71.804688 8.136719 C 71.867188 7.628906 71.933594 7.164062 71.992188 6.738281 C 72.207031 5.222656 72.351562 4.203125 72.125 2.824219 C 71.824219 1.023438 71.941406 0.121094 71.941406 0.117188 L 72.191406 0.148438 C 72.191406 0.148438 72.082031 1.023438 72.371094 2.785156 C 72.605469 4.199219 72.460938 5.234375 72.242188 6.773438 C 72.183594 7.1875 72.121094 7.640625 72.054688 8.167969 C 71.765625 10.519531 72.410156 12.15625 72.410156 12.164062 Z M 72.175781 12.25 " fill-opacity="1" fill-rule="nonzero"/></g><g clip-path="url(#5a69619147)"><path fill="#ba9b7f" d="M 70.039062 12.226562 C 70.035156 12.21875 69.488281 9.285156 69.878906 7.589844 C 70.03125 6.941406 70.097656 6.132812 70.117188 5.328125 C 70.148438 4.085938 70.066406 2.84375 70.011719 2.167969 C 69.921875 1.058594 69.789062 0.152344 69.789062 0.148438 L 70.039062 0.113281 C 70.039062 0.117188 70.175781 1.035156 70.265625 2.148438 C 70.320312 2.824219 70.402344 4.074219 70.371094 5.332031 C 70.347656 6.152344 70.28125 6.976562 70.128906 7.644531 C 69.746094 9.289062 70.285156 12.175781 70.285156 12.183594 Z M 70.039062 12.226562 " fill-opacity="1" fill-rule="nonzero"/></g><g clip-path="url(#eea0a7dcc4)"><path fill="#ba9b7f" d="M 70.492188 12.226562 C 70.488281 12.210938 69.808594 7.886719 70.128906 5.792969 C 70.445312 3.730469 70.414062 2.554688 70.414062 2.550781 L 70.667969 2.542969 C 70.667969 2.546875 70.699219 3.75 70.378906 5.832031 C 70.0625 7.882812 70.738281 12.175781 70.742188 12.1875 Z M 70.492188 12.226562 " fill-opacity="1" fill-rule="nonzero"/></g><g clip-path="url(#1815a2f829)"><path fill="#ba9b7f" d="M 78.542969 12.171875 C 78.542969 12.167969 79.125 10.097656 79.035156 8.226562 C 78.988281 7.261719 78.960938 6.339844 78.953125 5.53125 C 78.945312 4.753906 78.957031 4.082031 78.988281 3.578125 C 79.058594 2.554688 78.988281 0.140625 78.988281 0.136719 L 79.242188 0.128906 C 79.242188 0.136719 79.3125 2.566406 79.242188 3.59375 C 79.210938 4.09375 79.199219 4.761719 79.207031 5.527344 C 79.214844 6.328125 79.242188 7.246094 79.289062 8.214844 C 79.378906 10.125 78.785156 12.234375 78.785156 12.238281 Z M 78.542969 12.171875 " fill-opacity="1" fill-rule="nonzero"/></g></svg>